<svg width="585" height="791" viewBox="0 0 585 791" fill="none" xmlns="http://www.w3.org/2000/svg">
<path d="M346.839 464.928L287.342 360.162L182.577 419.659L242.073 524.424L346.839 464.928Z" fill="#FCFBF0"/>
<path d="M465.832 674.458L406.335 569.693L301.57 629.189L361.066 733.955L465.832 674.458Z" fill="#FCFBF0"/>
<path d="M242.074 524.424L182.577 419.659L77.8119 479.155L137.308 583.921L242.074 524.424Z" fill="#252525"/>
<path d="M301.57 629.189L242.074 524.424L137.308 583.921L196.805 688.686L301.57 629.189Z" fill="#FCFBF0"/>
<path d="M361.066 733.955L301.57 629.189L196.805 688.686L256.301 793.451L361.066 733.955Z" fill="#252525"/>
<path d="M137.308 583.921L77.8119 479.155L-26.9533 538.652L32.5431 643.417L137.308 583.921Z" fill="#FCFBF0"/>
<path d="M256.301 793.451L196.805 688.686L92.0394 748.182L151.536 852.947L256.301 793.451Z" fill="#FCFBF0"/>
<path d="M196.805 688.686L137.308 583.921L32.543 643.417L92.0395 748.182L196.805 688.686Z" fill="#252525"/>
<path d="M406.335 569.693L346.839 464.928L242.074 524.424L301.57 629.189L406.335 569.693Z" fill="#252525"/>
<path d="M77.8117 479.155L18.3153 374.39L-86.4499 433.887L-26.9535 538.652L77.8117 479.155Z" fill="#252525"/>
<path d="M227.846 255.397L168.349 150.632L63.5843 210.128L123.081 314.894L227.846 255.397Z" fill="#FCFBF0"/>
<path d="M287.342 360.162L227.846 255.397L123.081 314.894L182.577 419.659L287.342 360.162Z" fill="#252525"/>
<path d="M182.577 419.659L123.081 314.894L18.3153 374.39L77.8118 479.155L182.577 419.659Z" fill="#FCFBF0"/>
<path d="M63.5841 210.128L4.08765 105.363L-100.678 164.86L-41.1811 269.625L63.5841 210.128Z" fill="#FCFBF0"/>
<path d="M108.852 45.8671L49.356 -58.8981L-55.4092 0.598306L4.08727 105.364L108.852 45.8671Z" fill="#FCFBF0"/>
<path d="M77.8117 479.155L18.3153 374.39L-86.4499 433.887L-26.9535 538.652L77.8117 479.155Z" fill="#252525"/>
<path d="M92.0394 748.182L32.543 643.417L-72.2222 702.913L-12.7258 807.679L92.0394 748.182Z" fill="#FCFBF0"/>
<path d="M32.5431 643.417L-26.9534 538.652L-131.719 598.148L-72.2221 702.913L32.5431 643.417Z" fill="#252525"/>
<path d="M18.3155 374.39L-41.181 269.625L-145.946 329.121L-86.4497 433.887L18.3155 374.39Z" fill="#FCFBF0"/>
<path d="M123.081 314.894L63.5842 210.128L-41.181 269.625L18.3154 374.39L123.081 314.894Z" fill="#252525"/>
<path d="M4.08769 105.363L-55.4088 0.598022L-160.174 60.0945L-100.678 164.86L4.08769 105.363Z" fill="#252525"/>
<path d="M168.349 150.632L108.853 45.8668L4.08769 105.363L63.5841 210.128L168.349 150.632Z" fill="#252525"/>
<path d="M584.824 883.988L525.328 779.223L420.563 838.72L480.059 943.485L584.824 883.988Z" fill="#FCFBF0"/>
<path d="M151.536 852.947L92.0394 748.182L-12.7258 807.679L46.7706 912.444L151.536 852.947Z" fill="#252525"/>
<path d="M525.328 779.223L465.832 674.458L361.066 733.955L420.563 838.72L525.328 779.223Z" fill="#252525"/>
<path d="M421.734 839.453L362.237 734.688L257.472 794.184L316.969 898.949L421.734 839.453Z" fill="#FCFBF0"/>
<path d="M131.953 56.1926C123.415 58.6698 118.247 62.7234 116 68.691C114.09 73.5328 114.09 74.4336 116 86.5942C117.123 93.688 117.685 100.331 117.236 101.345C116.674 103.034 115.101 103.146 102.742 102.471C86.4516 101.457 83.3058 102.471 79.2612 110.127C77.0142 114.181 76.6772 116.546 76.6772 126.679C76.7895 136.701 77.1266 139.291 79.3736 143.907C83.6429 152.69 86.7887 154.154 102.518 154.829C118.359 155.505 117.797 154.266 110.832 171.381C107.91 178.362 106.001 185.231 105.439 190.185C104.877 194.914 103.978 198.18 102.967 198.743C89.0357 206.625 85.3281 215.97 92.6309 224.64C95.7767 228.469 95.889 228.469 85.1034 230.27C81.0588 230.946 71.5091 233.085 63.8693 234.887C31.0631 242.881 10.503 254.029 3.98674 267.203C-1.29372 278.012 1.40268 304.586 11.5142 339.153C20.3898 370.005 40.2758 417.522 56.0048 445.447C59.6 451.977 62.6334 458.058 62.6334 458.958C62.6334 462.111 60.6111 463.462 47.9156 468.98C40.8375 472.133 33.9842 475.736 32.636 477.199C31.0631 478.776 29.2655 483.73 27.4679 491.162C23.7603 506.137 22.7492 507.601 13.8735 509.966C9.94128 511.092 5.67198 513.118 4.32379 514.47C1.17798 517.735 -1.63077 526.18 -0.844315 529.783C0.840935 537.215 10.9524 543.745 22.8615 545.096C32.2989 546.11 33.8718 547.461 36.1188 556.356C38.5905 566.828 43.0845 571.332 57.5777 578.201C66.1163 582.254 69.2621 584.281 70.2732 586.645C76.9019 601.171 73.7561 730.772 65.3298 787.071C59.0382 829.634 46.6797 869.944 28.3667 907.552C15.1094 934.688 4.77318 950.902 -13.9893 973.197C-24.4378 985.808 -25.449 987.497 -27.1342 997.068C-28.9318 1007.54 -32.4147 1011.82 -45.1102 1019.14C-57.244 1026.12 -68.2543 1034.9 -77.467 1044.81C-111.846 1081.97 -123.193 1126.22 -104.206 1148.85L-101.398 1152.23L-107.802 1156.17C-115.217 1160.67 -121.621 1167.09 -124.317 1172.38C-127.013 1177.68 -127.8 1188.49 -126.115 1194.68C-121.059 1212.92 -92.2972 1225.42 -32.3023 1235.66C43.9833 1248.73 169.366 1251.77 266.549 1243.1C356.766 1234.99 409.233 1219.56 418.895 1198.17C421.367 1192.76 421.704 1182.52 419.682 1175.87C417.884 1169.91 410.132 1161.35 401.818 1156.28L395.302 1152.23L399.122 1147.61C404.964 1140.74 406.986 1133.65 406.986 1119.8C406.986 1106.63 404.739 1097.73 397.998 1082.98C386.763 1058.66 361.372 1031.07 339.014 1019.02C326.206 1012.16 322.836 1007.88 321.038 996.505C319.578 987.047 319.578 987.159 308.455 973.76C288.906 950.227 280.368 937.165 266.661 909.579C245.989 867.917 232.282 820.175 226.664 770.181C222.732 734.825 219.586 665.915 220.373 629.996C220.71 612.318 221.496 595.428 222.17 592.388C223.631 585.407 226.327 582.479 234.08 579.439C241.944 576.399 251.718 569.981 254.303 566.04C255.426 564.351 257.224 559.734 258.122 555.681C260.257 547.236 261.381 546.335 272.84 544.646C282.615 543.182 288.008 540.48 291.94 535.075C295.872 529.67 295.984 526.968 292.839 519.649C290.367 513.794 285.761 510.641 277.559 508.952C271.38 507.714 270.144 505.237 264.751 483.73C263.178 477.087 260.145 474.61 247.562 469.655C236.664 465.377 231.158 461.999 231.158 459.634C231.158 458.846 232.731 455.468 234.529 452.09C268.683 389.598 292.164 321.813 292.277 284.881C292.389 273.058 292.052 270.806 289.917 266.865C282.165 252.227 254.752 239.278 214.868 231.509C198.24 228.131 199.139 228.694 201.947 224.64C207.79 216.421 205.543 209.102 194.869 201.107L188.69 196.603L188.241 189.51C187.904 184.668 186.331 178.813 183.073 170.706C176.332 154.154 176.107 154.829 189.589 154.829C202.734 154.829 206.554 153.591 211.947 147.51C217.115 141.542 218.8 136.926 218.8 128.594C218.8 119.473 216.216 110.69 212.059 106.074L208.801 102.471H193.184C184.533 102.471 177.006 102.133 176.556 101.57C176.107 101.12 176.669 95.0392 177.792 88.0581C179.028 80.5139 179.477 73.7581 179.028 71.2809C177.118 60.9218 167.231 55.517 149.143 55.0667C141.503 54.8414 135.436 55.1792 131.953 56.1926Z" fill="white"/>
</svg>
