<svg width="40" height="40" viewBox="0 0 40 40" fill="none" xmlns="http://www.w3.org/2000/svg">
<path d="M20 39.4125C30.7221 39.4125 39.4141 30.7209 39.4141 19.9992C39.4141 9.27756 30.7221 0.585938 20 0.585938C9.27791 0.585938 0.585938 9.27756 0.585938 19.9992C0.585938 30.7209 9.27791 39.4125 20 39.4125Z" fill="#FF5368"/>
<path d="M31.9742 4.71758C31.1568 5.63797 31.1886 7.04742 32.0705 7.9293C35.2947 11.1534 37.0703 15.44 37.0703 19.9995C37.0703 24.5591 35.2947 28.8457 32.0704 32.0698C28.8463 35.2939 24.5596 37.0695 20 37.0695C15.4404 37.0695 11.1536 35.2939 7.92951 32.0698C7.04771 31.188 5.6381 31.1561 4.71771 31.9735C8.27177 36.5031 13.796 39.4131 20 39.4131C30.7221 39.4131 39.414 30.7213 39.414 19.9995C39.414 13.7956 36.5039 8.27164 31.9742 4.71758Z" fill="#C5324F"/>
<path d="M12.5691 2.06016L20 19.9995L27.431 2.06016C25.1419 1.11094 22.6324 0.585938 20 0.585938C17.3676 0.585938 14.8582 1.11094 12.5691 2.06016Z" fill="#FFF9EB"/>
<path d="M0.585938 19.9995C0.585938 22.6319 1.11094 25.1413 2.06016 27.4302L20 19.9995L2.06016 12.5688C1.11094 14.8578 0.585938 17.3673 0.585938 19.9995Z" fill="#FFF9EB"/>
<path d="M20 19.9995L37.9398 27.4303C38.8891 25.1412 39.4141 22.6319 39.4141 19.9995C39.4141 17.3672 38.8891 14.8578 37.9398 12.5688L20 19.9995Z" fill="#FFF9EB"/>
<path d="M20 39.4131C22.6324 39.4131 25.1419 38.8881 27.431 37.9389L20 19.9995L12.5691 37.9389C14.8582 38.8882 17.3676 39.4131 20 39.4131Z" fill="#FFF9EB"/>
<path d="M37.9391 12.5691L35.7794 13.4637C37.5009 17.6195 37.5021 22.3768 35.7794 26.5355L37.9398 27.4304C40.0005 22.2787 39.8056 17.0614 37.9391 12.5691Z" fill="#D3CDBF"/>
<path d="M27.4309 37.9389L26.5361 35.7786C22.38 37.5 17.6226 37.5011 13.4639 35.7786L12.5693 37.9382C17.1929 39.8552 22.5666 39.956 27.4309 37.9389Z" fill="#D3CDBF"/>
<path d="M20 34.1398C12.2028 34.1398 5.85938 27.7966 5.85938 19.9995C5.85938 12.2025 12.2028 5.85922 20 5.85922C27.7972 5.85922 34.1406 12.2025 34.1406 19.9995C34.1406 27.7966 27.7972 34.1398 20 34.1398Z" fill="#FF5368"/>
<path d="M24.4326 26.7924C24.6826 26.4292 24.7174 25.9631 24.5241 25.5678C24.3306 25.1728 23.938 24.9081 23.4927 24.8727C22.4459 24.181 21.8188 23.0233 21.8204 21.785V20.5516C22.4887 20.5546 23.042 20.0425 23.0779 19.3874C23.1137 18.7324 22.6195 18.1651 21.9545 18.0979L22.7433 16.0347C22.7795 15.94 22.7662 15.8337 22.7074 15.7504C22.6486 15.6673 22.552 15.6176 22.4488 15.6178H21.8204V14.6927C21.8204 14.5224 21.6797 14.3844 21.5061 14.3844H21.123L20.9955 13.883L21.744 14.068C21.8379 14.0918 21.9376 14.071 22.0135 14.0119C22.0903 13.9531 22.1349 13.8631 22.1346 13.7676V11.9175C22.1345 11.8225 22.0898 11.7329 22.0135 11.6745C21.9376 11.6156 21.8379 11.5948 21.744 11.6183L20.9955 11.8033L21.1824 11.0683C21.2063 10.976 21.1854 10.8781 21.1258 10.803C21.0662 10.7278 20.9746 10.684 20.8776 10.684H18.9922C18.8954 10.684 18.8041 10.7278 18.7446 10.8025C18.685 10.8774 18.664 10.9749 18.6873 11.0671L18.8744 11.8021L18.1257 11.6171C18.0317 11.5941 17.932 11.6148 17.8555 11.6736C17.7793 11.7323 17.7348 11.8223 17.7353 11.9175V13.7676C17.7353 13.8626 17.7797 13.9522 17.8562 14.0108C17.9324 14.0692 18.0318 14.0898 18.1257 14.0668L18.8744 13.8818L18.7467 14.3844H18.3637C18.1902 14.3844 18.0495 14.5224 18.0495 14.6927V15.6178H17.421C17.3177 15.6176 17.2211 15.6673 17.1623 15.7504C17.1036 15.8337 17.0902 15.94 17.1266 16.0347L17.9152 18.0979C17.2502 18.1651 16.756 18.7324 16.7919 19.3874C16.8277 20.0425 17.381 20.5546 18.0495 20.5516V21.785C18.0509 23.0233 17.4238 24.181 16.377 24.8727C15.9318 24.9081 15.5391 25.1728 15.3458 25.5678C15.1523 25.9631 15.1871 26.4292 15.4372 26.7924C14.858 26.989 14.5083 27.5675 14.6105 28.1606C14.7128 28.7535 15.2368 29.187 15.8498 29.1857H24.02C24.6329 29.187 25.1569 28.7535 25.2592 28.1606C25.3614 27.5675 25.0119 26.989 24.4326 26.7924V26.7924ZM18.3637 13.3727V12.3124L19.23 12.525C19.3371 12.5512 19.4504 12.5205 19.5285 12.444C19.6064 12.3674 19.6379 12.2562 19.6112 12.1512L19.3947 11.3008H20.475L20.2585 12.1512C20.2318 12.2562 20.2633 12.3674 20.3414 12.444C20.4193 12.5205 20.5327 12.5512 20.6397 12.525L21.5061 12.3124V13.3727L20.6397 13.1601C20.5327 13.1339 20.4193 13.1646 20.3414 13.2411C20.2633 13.3177 20.2318 13.4289 20.2585 13.534L20.475 14.3844H19.3947L19.6112 13.534C19.6379 13.4289 19.6064 13.3177 19.5285 13.2411C19.4504 13.1646 19.3371 13.1339 19.23 13.1601L18.3637 13.3727ZM18.678 15.0011H21.1919V15.6178H18.678V15.0011ZM17.8744 16.2345H21.9953L21.2882 18.0847H18.5815L17.8744 16.2345ZM17.421 19.3181C17.421 18.9775 17.7023 18.7014 18.0495 18.7014H21.8204C22.1674 18.7014 22.4488 18.9775 22.4488 19.3181C22.4488 19.6587 22.1674 19.9348 21.8204 19.9348H18.0495C17.7023 19.9348 17.421 19.6587 17.421 19.3181ZM16.4811 25.4853C16.5421 25.4847 16.6018 25.4668 16.6526 25.4335L16.7077 25.3974C17.9386 24.5923 18.678 23.2366 18.678 21.785V20.5516H21.1919V21.785C21.1927 22.945 21.6682 24.056 22.5116 24.8686H18.3637C18.1902 24.8686 18.0495 25.0067 18.0495 25.177C18.0495 25.3473 18.1902 25.4853 18.3637 25.4853H23.356C23.6719 25.4781 23.9478 25.6937 24.0111 25.9976C24.0426 26.1767 23.9918 26.3606 23.8723 26.4996C23.7528 26.6387 23.5769 26.7189 23.3916 26.7188H16.4783C16.2923 26.7188 16.1159 26.6381 15.9965 26.4984C15.877 26.3586 15.8268 26.174 15.8592 25.9944C15.9173 25.7016 16.1769 25.489 16.4811 25.4853ZM24.02 28.5689H15.8498C15.5026 28.5689 15.2213 28.2928 15.2213 27.9522C15.2213 27.6116 15.5026 27.3355 15.8498 27.3355H24.02C24.3671 27.3355 24.6485 27.6116 24.6485 27.9522C24.6485 28.2928 24.3671 28.5689 24.02 28.5689Z" fill="#FFF9EB"/>
<path d="M28.207 8.49102C27.4294 9.41187 27.4738 10.7903 28.3416 11.6581C32.9412 16.2577 32.9412 23.7416 28.3416 28.3411C26.1178 30.5648 23.1553 31.7895 20 31.7895C16.8447 31.7895 13.8822 30.5648 11.6583 28.3409C10.7906 27.4733 9.41201 27.4287 8.49115 28.2063C11.0583 31.7958 15.2604 34.1398 20 34.1398C27.7972 34.1398 34.1406 27.7966 34.1406 19.9995C34.1406 15.2601 31.7965 11.058 28.207 8.49102Z" fill="#C5324F"/>
<path d="M34.1422 5.85781C30.3646 2.08039 25.3422 0 20 0C14.6578 0 9.63539 2.08039 5.85789 5.85781C2.08039 9.63539 0 14.6578 0 20C0 25.3422 2.08039 30.3646 5.85789 34.1422C9.63539 37.9196 14.6578 40 20 40C25.3422 40 30.3646 37.9196 34.1422 34.1422C37.9196 30.3646 40 25.3422 40 20C40 14.6578 37.9196 9.63539 34.1422 5.85781ZM37.6115 26.6607L33.8189 25.0898C34.4073 23.4971 34.7266 21.7798 34.7266 20.0005C34.7266 18.2475 34.4216 16.5381 33.8191 14.9102L37.6115 13.3393C38.3976 15.4109 38.8281 17.6561 38.8281 20C38.8281 22.3439 38.3976 24.5891 37.6115 26.6607ZM37.1616 12.2573L32.8393 14.0477C32.7013 14.1048 32.584 14.2139 32.5219 14.3652C32.4624 14.5098 32.4624 14.6684 32.5219 14.8129C32.5219 14.8129 32.5219 14.8134 32.5224 14.8136C33.1947 16.4389 33.5547 18.1666 33.5547 20.0005C33.5547 21.7204 33.2302 23.4802 32.5279 25.1738C32.5259 25.1782 32.5241 25.1826 32.5223 25.187C32.5207 25.1906 32.5193 25.1944 32.5178 25.1981C31.1476 28.4859 28.4759 31.1555 25.1859 32.5227C23.5383 33.2071 21.793 33.5547 20 33.5547C18.2063 33.5547 16.4617 33.2071 14.8141 32.5227C11.5203 31.1539 8.84609 28.4796 7.47734 25.1859C6.79297 23.5389 6.44531 21.7944 6.44531 20.0005C6.44531 18.2108 6.79109 16.4709 7.4718 14.8271C7.47383 14.8225 7.47586 14.8179 7.47781 14.8132C7.47969 14.8087 7.48141 14.8043 7.48312 14.7998C8.85359 11.5132 11.5249 8.84445 14.814 7.47766C16.4616 6.79242 18.2062 6.44562 19.9999 6.44562C21.7937 6.44562 23.5382 6.7925 25.1859 7.47766C27.764 8.54953 30.0038 10.4473 31.4921 12.8207C31.6662 13.0982 32.0268 13.1766 32.2999 13.0059C32.5721 12.8335 32.6576 12.4746 32.4851 12.198C31.6773 10.9105 30.6797 9.75812 29.5195 8.77297C28.501 7.90781 27.3768 7.1893 26.1718 6.63102L27.7428 2.83844C31.9108 4.72625 35.2738 8.08922 37.1616 12.2573ZM26.6607 2.38852L25.0898 6.18102C23.4615 5.57852 21.7522 5.27359 20 5.27359C18.2478 5.27359 16.5385 5.57859 14.9102 6.18102L13.3393 2.38852C15.4109 1.60242 17.6562 1.17188 20 1.17188C22.3439 1.17188 24.5891 1.60242 26.6607 2.38852ZM12.2572 2.83836L13.8281 6.63102C12.2534 7.36102 10.8206 8.36313 9.59219 9.59156C8.38664 10.7973 7.37594 12.222 6.63086 13.8281L2.83836 12.2572C4.72625 8.08922 8.08922 4.72625 12.2572 2.83836ZM2.38852 13.3392L6.18086 14.9101C5.57844 16.539 5.27344 18.2483 5.27344 20.0005C5.27344 21.752 5.57844 23.4613 6.18094 25.0898L2.38852 26.6607C1.60242 24.5891 1.17188 22.3439 1.17188 20C1.17188 17.6561 1.60242 15.4109 2.38852 13.3392ZM2.83836 27.7427L6.63102 26.1717C7.36984 27.7655 8.37617 29.1916 9.59219 30.4077C10.8056 31.621 12.231 32.6285 13.8281 33.369L12.2572 37.1616C8.08922 35.2737 4.72625 31.9108 2.83836 27.7427ZM13.3393 37.6115L14.9102 33.8191C16.5384 34.4216 18.247 34.7265 19.9984 34.7265H20.0016C21.753 34.7265 23.4616 34.4216 25.0898 33.8191L26.6608 37.6115C24.5891 38.3976 22.3439 38.8281 20 38.8281C17.6562 38.8281 15.4109 38.3976 13.3393 37.6115ZM27.7428 37.1616L26.1718 33.3691C27.7654 32.6303 29.1918 31.6237 30.4077 30.4077C31.6159 29.1994 32.6255 27.7755 33.3689 26.1718L37.1616 27.7427C35.2738 31.9108 31.9108 35.2738 27.7428 37.1616Z" fill="black"/>
<mask id="mask0" mask-type="alpha" maskUnits="userSpaceOnUse" x="14" y="10" width="12" height="20">
<path d="M24.4326 26.7924C24.6826 26.4292 24.7174 25.9631 24.5241 25.5678C24.3306 25.1728 23.938 24.9081 23.4927 24.8727C22.4459 24.181 21.8188 23.0233 21.8204 21.785V20.5516C22.4887 20.5546 23.042 20.0425 23.0779 19.3874C23.1137 18.7324 22.6195 18.1651 21.9545 18.0979L22.7433 16.0347C22.7795 15.94 22.7662 15.8337 22.7074 15.7504C22.6486 15.6673 22.552 15.6176 22.4488 15.6178H21.8204V14.6927C21.8204 14.5224 21.6797 14.3844 21.5061 14.3844H21.123L20.9955 13.883L21.744 14.068C21.8379 14.0918 21.9376 14.071 22.0135 14.0119C22.0903 13.9531 22.1349 13.8631 22.1346 13.7676V11.9175C22.1345 11.8225 22.0898 11.7329 22.0135 11.6745C21.9376 11.6156 21.8379 11.5948 21.744 11.6183L20.9955 11.8033L21.1824 11.0683C21.2063 10.976 21.1854 10.8781 21.1258 10.803C21.0662 10.7278 20.9746 10.684 20.8776 10.684H18.9922C18.8954 10.684 18.8041 10.7278 18.7446 10.8025C18.685 10.8774 18.664 10.9749 18.6873 11.0671L18.8744 11.8021L18.1257 11.6171C18.0317 11.5941 17.932 11.6148 17.8555 11.6736C17.7793 11.7323 17.7348 11.8223 17.7353 11.9175V13.7676C17.7353 13.8626 17.7797 13.9522 17.8562 14.0108C17.9324 14.0692 18.0318 14.0898 18.1257 14.0668L18.8744 13.8818L18.7467 14.3844H18.3637C18.1902 14.3844 18.0495 14.5224 18.0495 14.6927V15.6178H17.421C17.3177 15.6176 17.2211 15.6673 17.1623 15.7504C17.1036 15.8337 17.0902 15.94 17.1266 16.0347L17.9152 18.0979C17.2502 18.1651 16.756 18.7324 16.7919 19.3874C16.8277 20.0425 17.381 20.5546 18.0495 20.5516V21.785C18.0509 23.0233 17.4238 24.181 16.377 24.8727C15.9318 24.9081 15.5391 25.1728 15.3458 25.5678C15.1523 25.9631 15.1871 26.4292 15.4372 26.7924C14.858 26.989 14.5083 27.5675 14.6105 28.1606C14.7128 28.7535 15.2368 29.187 15.8498 29.1857H24.02C24.6329 29.187 25.1569 28.7535 25.2592 28.1606C25.3614 27.5675 25.0119 26.989 24.4326 26.7924V26.7924ZM18.3637 13.3727V12.3124L19.23 12.525C19.3371 12.5512 19.4504 12.5205 19.5285 12.444C19.6064 12.3674 19.6379 12.2562 19.6112 12.1511L19.3947 11.3007H20.475L20.2585 12.1511C20.2318 12.2562 20.2633 12.3674 20.3414 12.444C20.4193 12.5205 20.5327 12.5512 20.6397 12.525L21.5061 12.3124V13.3727L20.6397 13.1601C20.5327 13.1339 20.4193 13.1646 20.3414 13.2411C20.2633 13.3177 20.2318 13.4289 20.2585 13.534L20.475 14.3844H19.3947L19.6112 13.534C19.6379 13.4289 19.6064 13.3177 19.5285 13.2411C19.4504 13.1646 19.3371 13.1339 19.23 13.1601L18.3637 13.3727ZM18.678 15.0011H21.1919V15.6178H18.678V15.0011ZM17.8744 16.2345H21.9953L21.2882 18.0847H18.5815L17.8744 16.2345ZM17.421 19.3181C17.421 18.9775 17.7023 18.7014 18.0495 18.7014H21.8204C22.1674 18.7014 22.4488 18.9775 22.4488 19.3181C22.4488 19.6587 22.1674 19.9348 21.8204 19.9348H18.0495C17.7023 19.9348 17.421 19.6587 17.421 19.3181ZM16.4811 25.4853C16.5421 25.4847 16.6018 25.4668 16.6526 25.4335L16.7077 25.3974C17.9386 24.5923 18.678 23.2366 18.678 21.785V20.5516H21.1919V21.785C21.1927 22.945 21.6682 24.056 22.5116 24.8686H18.3637C18.1902 24.8686 18.0495 25.0067 18.0495 25.177C18.0495 25.3473 18.1902 25.4853 18.3637 25.4853H23.356C23.6719 25.4781 23.9478 25.6937 24.0111 25.9976C24.0426 26.1767 23.9918 26.3606 23.8723 26.4995C23.7528 26.6387 23.5769 26.7189 23.3916 26.7188H16.4783C16.2923 26.7188 16.1159 26.6381 15.9965 26.4983C15.877 26.3586 15.8268 26.174 15.8592 25.9944C15.9173 25.7015 16.1769 25.4889 16.4811 25.4853ZM24.02 28.5689H15.8498C15.5026 28.5689 15.2213 28.2928 15.2213 27.9522C15.2213 27.6116 15.5026 27.3355 15.8498 27.3355H24.02C24.3671 27.3355 24.6485 27.6116 24.6485 27.9522C24.6485 28.2928 24.3671 28.5689 24.02 28.5689Z" fill="#FFF9EB"/>
</mask>
<g mask="url(#mask0)">
<path d="M29.319 19.9349C28.6125 18.8534 27.22 14.7746 26.1238 14.3323C26.3062 16.4819 25.2117 12.9171 25.2117 15.8958C25.2117 15.8958 22.8013 13.8111 22.8013 15.8958C22.8013 17.9805 21.9544 21.2378 19.9348 22.4104C17.9153 23.5831 14.5764 26.1133 13.0293 24.7557L15.3056 31.7983C16.7612 33.8629 19.594 34.3276 21.6329 32.8362L27.668 28.4219C30.337 26.4696 31.1284 22.7051 29.319 19.9349Z" fill="#D3CDBF"/>
</g>
</svg>
