<?xml version="1.0"?>
<svg xmlns="http://www.w3.org/2000/svg" xmlns:xlink="http://www.w3.org/1999/xlink" xmlns:svgjs="http://svgjs.com/svgjs" version="1.1" width="512" height="512" x="0" y="0" viewBox="0 0 262.5 262.5" style="enable-background:new 0 0 512 512" xml:space="preserve"><g>
<g xmlns="http://www.w3.org/2000/svg">
	<path d="M220.328,239c0-4.142-3.358-7.5-7.5-7.5h-163c-4.142,0-7.5,3.358-7.5,7.5v16c0,4.142,3.358,7.5,7.5,7.5h163   c4.142,0,7.5-3.358,7.5-7.5V239z" fill="#fcfdf3" data-original="#000000" style=""/>
	<path d="M107.661,44.5h15.667v95c0,4.143,3.357,7.5,7.5,7.5s7.5-3.357,7.5-7.5v-95h17.333c4.143,0,7.5-3.357,7.5-7.5   s-3.357-7.5-7.5-7.5h-17.333v-22c0-4.143-3.357-7.5-7.5-7.5s-7.5,3.357-7.5,7.5v22h-15.667c-4.143,0-7.5,3.357-7.5,7.5   S103.519,44.5,107.661,44.5z" fill="#fcfdf3" data-original="#000000" style=""/>
	<path d="M172.041,65.5c-5.595,0-11.259,0.652-16.917,1.938c-3.414,0.776-5.795,3.812-5.795,7.313V147.5c0,9.925-8.075,18-18,18   s-18-8.075-18-18V74.752c0-3.502-2.464-6.537-5.878-7.313c-5.658-1.286-11.385-1.938-16.981-1.938   c-40.584,0-73.612,32.972-73.612,73.5c0,20.856,8.839,57.37,25.442,71.681c1.361,1.174,3.093,1.819,4.891,1.819h168.108   c1.797,0,3.535-0.646,4.896-1.819c16.604-14.311,25.447-50.824,25.447-71.681C245.643,98.472,212.625,65.5,172.041,65.5z" fill="#fcfdf3" data-original="#000000" style=""/>
</g>
<g xmlns="http://www.w3.org/2000/svg">
</g>
<g xmlns="http://www.w3.org/2000/svg">
</g>
<g xmlns="http://www.w3.org/2000/svg">
</g>
<g xmlns="http://www.w3.org/2000/svg">
</g>
<g xmlns="http://www.w3.org/2000/svg">
</g>
<g xmlns="http://www.w3.org/2000/svg">
</g>
<g xmlns="http://www.w3.org/2000/svg">
</g>
<g xmlns="http://www.w3.org/2000/svg">
</g>
<g xmlns="http://www.w3.org/2000/svg">
</g>
<g xmlns="http://www.w3.org/2000/svg">
</g>
<g xmlns="http://www.w3.org/2000/svg">
</g>
<g xmlns="http://www.w3.org/2000/svg">
</g>
<g xmlns="http://www.w3.org/2000/svg">
</g>
<g xmlns="http://www.w3.org/2000/svg">
</g>
<g xmlns="http://www.w3.org/2000/svg">
</g>
</g></svg>
